<?xml version="1.0" encoding="UTF-8"?>
<svg version="1.1" xmlns="http://www.w3.org/2000/svg" width="512" height="512">
<path d="M0 0 C8.71932836 5.39888645 14.27994844 12.65188893 16.6875 22.6640625 C17.85242458 33.24199371 17.21204498 42.51973042 10.734375 51.31640625 C6.1465977 56.77842782 1.3594909 60.98398159 -5.3125 63.6640625 C-5.9725 63.6640625 -6.6325 63.6640625 -7.3125 63.6640625 C-7.3125 102.2740625 -7.3125 140.8840625 -7.3125 180.6640625 C12.4875 180.6640625 32.2875 180.6640625 52.6875 180.6640625 C52.6875 173.7340625 52.6875 166.8040625 52.6875 159.6640625 C58.25776081 154.09380169 58.25776081 154.09380169 63.57688904 154.04196167 C64.33502396 154.05993805 65.09315887 154.07791443 65.87426758 154.09643555 C66.68454407 154.09570541 67.49482056 154.09497528 68.32965088 154.09422302 C70.99780101 154.097696 73.66418757 154.13654147 76.33203125 154.17578125 C78.18575588 154.18511045 80.03949287 154.19222606 81.89323425 154.19721985 C86.76466093 154.21628126 91.63533841 154.26537465 96.50646973 154.32073975 C102.35506457 154.38095955 108.20391039 154.40385256 114.05272675 154.43300629 C122.93150505 154.48144024 131.80864055 154.5772607 140.6875 154.6640625 C140.6875 134.5340625 140.6875 114.4040625 140.6875 93.6640625 C137.7175 92.6740625 137.7175 92.6740625 134.6875 91.6640625 C126.8034688 87.37926294 120.2691505 80.10381035 117.31640625 71.58984375 C114.96420988 60.64701714 116.00742179 50.42482847 121.6875 40.6640625 C127.31782789 32.87621142 135.52407386 28.22699184 144.8359375 26.1953125 C154.61813546 24.68507843 163.3791299 27.52501718 171.6875 32.6640625 C174.5625 35.1640625 174.5625 35.1640625 176.6875 37.6640625 C177.368125 38.3859375 178.04875 39.1078125 178.75 39.8515625 C184.97802867 48.89224929 185.71909762 58.00060076 184.6875 68.6640625 C182.83899619 77.74743882 176.71089124 85.19293035 169.171875 90.40234375 C163.47535211 93.6640625 163.47535211 93.6640625 160.6875 93.6640625 C160.6875 113.7940625 160.6875 133.9240625 160.6875 154.6640625 C174.5475 154.6640625 188.4075 154.6640625 202.6875 154.6640625 C202.62949219 149.30800781 202.57148438 143.95195312 202.51171875 138.43359375 C202.4861679 135.03838113 202.46209829 131.64328722 202.44335938 128.24804688 C202.41348093 122.86001945 202.37815328 117.47241727 202.31030273 112.0847168 C202.25593594 107.74046358 202.22606973 103.39666641 202.21311378 99.05209923 C202.20388219 97.39546212 202.18585454 95.73884971 202.15884972 94.082407 C202.12249502 91.75987649 202.11755699 89.4392248 202.11987305 87.11645508 C202.10189667 86.43312607 202.08392029 85.74979706 202.06539917 85.04576111 C202.10526983 81.34523767 202.63698953 79.73003069 204.91047668 76.76078796 C209.50711012 73.29020912 213.5994403 73.53753325 219.21850586 73.51879883 C220.52013168 73.51241898 221.82175751 73.50603912 223.16282654 73.49946594 C224.57599856 73.4979372 225.98917109 73.49682327 227.40234375 73.49609375 C228.86056043 73.49287781 230.31877679 73.48951348 231.7769928 73.48600769 C234.82911934 73.48003041 237.88121763 73.47816639 240.93334961 73.47875977 C244.83490083 73.47886141 248.73627016 73.46520081 252.63777828 73.44798756 C255.64816615 73.43684418 258.65851033 73.43484126 261.6689167 73.43536949 C263.10695587 73.43419323 264.54499631 73.42979135 265.98301506 73.42203712 C267.99768586 73.41218873 270.01241034 73.416392 272.02709961 73.42114258 C273.74321693 73.41900505 273.74321693 73.41900505 275.4940033 73.41682434 C279.85641726 73.75455921 283.36466761 74.82858941 287.0625 77.1640625 C289.244175 80.52048558 289.21305984 83.19566345 289.31640625 87.12890625 C288.63040127 89.89423068 287.70364808 91.63454978 285.63087463 93.60679626 C280.97117495 96.14184178 275.00271916 95.25385903 269.85546875 95.15234375 C268.4949931 95.14301062 267.13450058 95.13589686 265.77400208 95.13090515 C262.20448883 95.11187381 258.63600347 95.0628093 255.06689453 95.00738525 C251.42039138 94.95610757 247.77371611 94.93309859 244.12695312 94.90820312 C236.97956291 94.85733926 229.83498996 94.75947545 222.6875 94.6640625 C222.6875 114.4640625 222.6875 134.2640625 222.6875 154.6640625 C229.6175 154.6640625 236.5475 154.6640625 243.6875 154.6640625 C249.25776081 160.23432331 249.25776081 160.23432331 249.30960083 165.55345154 C249.29162445 166.31158646 249.27364807 167.06972137 249.25512695 167.85083008 C249.25585709 168.66110657 249.25658722 169.47138306 249.25733948 170.30621338 C249.2538665 172.97436351 249.21502103 175.64075007 249.17578125 178.30859375 C249.16645205 180.16231838 249.15933644 182.01605537 249.15434265 183.86979675 C249.13528124 188.74122343 249.08618785 193.61190091 249.03082275 198.48303223 C248.97060295 204.33162707 248.94770994 210.18047289 248.91855621 216.02928925 C248.87012226 224.90806755 248.7743018 233.78520305 248.6875 242.6640625 C268.8175 242.6640625 288.9475 242.6640625 309.6875 242.6640625 C310.3475 240.6840625 311.0075 238.7040625 311.6875 236.6640625 C315.97229956 228.7800313 323.24775215 222.245713 331.76171875 219.29296875 C342.70454536 216.94077238 352.92673403 217.98398429 362.6875 223.6640625 C370.47535108 229.29439039 375.12457066 237.50063636 377.15625 246.8125 C378.66648407 256.59469796 375.82654532 265.3556924 370.6875 273.6640625 C368.1875 276.5390625 368.1875 276.5390625 365.6875 278.6640625 C364.965625 279.3446875 364.24375 280.0253125 363.5 280.7265625 C354.45931321 286.95459117 345.35096174 287.69566012 334.6875 286.6640625 C325.60412368 284.81555869 318.15863215 278.68745374 312.94921875 271.1484375 C309.6875 265.45191461 309.6875 265.45191461 309.6875 262.6640625 C289.5575 262.6640625 269.4275 262.6640625 248.6875 262.6640625 C248.6875 276.5240625 248.6875 290.3840625 248.6875 304.6640625 C256.72158203 304.57705078 256.72158203 304.57705078 264.91796875 304.48828125 C268.31318137 304.4627304 271.70827528 304.43866079 275.10351562 304.41992188 C280.49154305 304.39004343 285.87914523 304.35471578 291.2668457 304.28686523 C295.61109892 304.23249844 299.95489609 304.20263223 304.29946327 304.18967628 C305.95610038 304.18044469 307.61271279 304.16241704 309.2691555 304.13541222 C311.59168601 304.09905752 313.9123377 304.09411949 316.23510742 304.09643555 C316.91843643 304.07845917 317.60176544 304.06048279 318.30580139 304.04196167 C322.00632483 304.08183233 323.62153181 304.61355203 326.59077454 306.88703918 C329.74589592 311.06586269 329.81025441 314.96473566 329.84571838 320.08674622 C329.86040161 321.69995255 329.86040161 321.69995255 329.87538147 323.3457489 C329.88113693 324.51531631 329.8868924 325.68488373 329.89282227 326.88989258 C329.90272186 328.12932617 329.91262146 329.36875977 329.92282104 330.64575195 C329.94896082 334.03583842 329.97084256 337.42590195 329.99082303 340.81602693 C330.01273237 344.36213316 330.04009679 347.90819723 330.06687927 351.45426941 C330.11673939 358.16540559 330.16170292 364.87656527 330.20490164 371.58774728 C330.25433121 379.22982544 330.30922808 386.87186129 330.36458123 394.51389849 C330.47829867 410.23058069 330.58515989 425.94730185 330.6875 441.6640625 C331.29368164 441.98729492 331.89986328 442.31052734 332.52441406 442.64355469 C333.32588867 443.07829102 334.12736328 443.51302734 334.953125 443.9609375 C335.74493164 444.38729492 336.53673828 444.81365234 337.35253906 445.25292969 C344.53123697 449.59137322 349.61715407 456.54592486 352.296875 464.46484375 C354.16505082 474.98267359 353.38024882 485.47013953 347.6875 494.6640625 C342.22199387 501.98114825 335.57852034 506.510849 326.6875 508.6640625 C315.40195977 510.03097979 305.46129025 508.72375339 296.125 501.75 C289.07921447 495.37634532 285.29069014 488.14124439 284.25 478.69140625 C283.72393778 467.77174706 285.78482711 459.79283476 292.875 451.3515625 C296.94241302 447.07539152 301.19062897 443.87210795 306.6875 441.6640625 C307.3475 441.6640625 308.0075 441.6640625 308.6875 441.6640625 C308.6875 403.0540625 308.6875 364.4440625 308.6875 324.6640625 C288.8875 324.6640625 269.0875 324.6640625 248.6875 324.6640625 C248.6875 331.5940625 248.6875 338.5240625 248.6875 345.6640625 C243.11723919 351.23432331 243.11723919 351.23432331 237.79811096 351.28616333 C237.03997604 351.26818695 236.28184113 351.25021057 235.50073242 351.23168945 C234.28531769 351.23278465 234.28531769 351.23278465 233.04534912 351.23390198 C230.37719899 351.230429 227.71081243 351.19158353 225.04296875 351.15234375 C223.18924412 351.14301455 221.33550713 351.13589894 219.48176575 351.13090515 C214.61033907 351.11184374 209.73966159 351.06275035 204.86853027 351.00738525 C199.01993543 350.94716545 193.17108961 350.92427244 187.32227325 350.89511871 C178.44349495 350.84668476 169.56635945 350.7508643 160.6875 350.6640625 C160.6875 370.7940625 160.6875 390.9240625 160.6875 411.6640625 C162.6675 412.3240625 164.6475 412.9840625 166.6875 413.6640625 C174.5715312 417.94886206 181.1058495 425.22431465 184.05859375 433.73828125 C186.41079012 444.68110786 185.36757821 454.90329653 179.6875 464.6640625 C174.05717211 472.45191358 165.85092614 477.10113316 156.5390625 479.1328125 C146.75686454 480.64304657 137.9958701 477.80310782 129.6875 472.6640625 C126.8125 470.1640625 126.8125 470.1640625 124.6875 467.6640625 C124.006875 466.9421875 123.32625 466.2203125 122.625 465.4765625 C116.39697133 456.43587571 115.65590238 447.32752424 116.6875 436.6640625 C118.53600381 427.58068618 124.66410876 420.13519465 132.203125 414.92578125 C137.89964789 411.6640625 137.89964789 411.6640625 140.6875 411.6640625 C140.6875 391.5340625 140.6875 371.4040625 140.6875 350.6640625 C126.8275 350.6640625 112.9675 350.6640625 98.6875 350.6640625 C98.77451172 358.69814453 98.77451172 358.69814453 98.86328125 366.89453125 C98.8888321 370.28974387 98.91290171 373.68483778 98.93164062 377.08007812 C98.96151907 382.46810555 98.99684672 387.85570773 99.06469727 393.2434082 C99.11906406 397.58766142 99.14893027 401.93145859 99.16188622 406.27602577 C99.17111781 407.93266288 99.18914546 409.58927529 99.21615028 411.245718 C99.25250498 413.56824851 99.25744301 415.8889002 99.25512695 418.21166992 C99.28209152 419.23666344 99.28209152 419.23666344 99.30960083 420.28236389 C99.26973017 423.98288733 98.73801047 425.59809431 96.46452332 428.56733704 C91.86788988 432.03791588 87.7755597 431.79059175 82.15649414 431.80932617 C80.85486832 431.81570602 79.55324249 431.82208588 78.21217346 431.82865906 C76.79900144 431.8301878 75.38582891 431.83130173 73.97265625 431.83203125 C72.51443957 431.83524719 71.05622321 431.83861152 69.5980072 431.84211731 C66.54588066 431.84809459 63.49378237 431.84995861 60.44165039 431.84936523 C56.54009917 431.84926359 52.63872984 431.86292419 48.73722172 431.88013744 C45.72683385 431.89128082 42.71648967 431.89328374 39.7060833 431.89275551 C38.26804413 431.89393177 36.83000369 431.89833365 35.39198494 431.90608788 C33.37731414 431.91593627 31.36258966 431.911733 29.34790039 431.90698242 C28.20382217 431.90840744 27.05974396 431.90983246 25.8809967 431.91130066 C21.51858274 431.57356579 18.01033239 430.49953559 14.3125 428.1640625 C12.130825 424.80763942 12.16194016 422.13246155 12.05859375 418.19921875 C12.74459873 415.43389432 13.67135192 413.69357522 15.74412537 411.72132874 C20.40382505 409.18628322 26.37228084 410.07426597 31.51953125 410.17578125 C32.8800069 410.18511438 34.24049942 410.19222814 35.60099792 410.19721985 C39.17051117 410.21625119 42.73899653 410.2653157 46.30810547 410.32073975 C49.95460862 410.37201743 53.60128389 410.39502641 57.24804688 410.41992188 C64.39543709 410.47078574 71.54001004 410.56864955 78.6875 410.6640625 C78.6875 390.8640625 78.6875 371.0640625 78.6875 350.6640625 C71.7575 350.6640625 64.8275 350.6640625 57.6875 350.6640625 C52.11723919 345.09380169 52.11723919 345.09380169 52.06539917 339.77467346 C52.09236374 338.63747108 52.09236374 338.63747108 52.11987305 337.47729492 C52.11877785 336.26188019 52.11877785 336.26188019 52.11766052 335.02191162 C52.1211335 332.35376149 52.15997897 329.68737493 52.19921875 327.01953125 C52.20854795 325.16580662 52.21566356 323.31206963 52.22065735 321.45832825 C52.23971876 316.58690157 52.28881215 311.71622409 52.34417725 306.84509277 C52.40439705 300.99649793 52.42729006 295.14765211 52.45644379 289.29883575 C52.50487774 280.42005745 52.6006982 271.54292195 52.6875 262.6640625 C32.5575 262.6640625 12.4275 262.6640625 -8.3125 262.6640625 C-8.9725 264.6440625 -9.6325 266.6240625 -10.3125 268.6640625 C-14.59729956 276.5480937 -21.87275215 283.082412 -30.38671875 286.03515625 C-41.32954536 288.38735262 -51.55173403 287.34414071 -61.3125 281.6640625 C-69.10035108 276.03373461 -73.74957066 267.82748864 -75.78125 258.515625 C-77.29148407 248.73342704 -74.45154532 239.9724326 -69.3125 231.6640625 C-66.8125 228.7890625 -66.8125 228.7890625 -64.3125 226.6640625 C-63.590625 225.9834375 -62.86875 225.3028125 -62.125 224.6015625 C-53.08431321 218.37353383 -43.97596174 217.63246488 -33.3125 218.6640625 C-24.22912368 220.51256631 -16.78363215 226.64067126 -11.57421875 234.1796875 C-8.3125 239.87621039 -8.3125 239.87621039 -8.3125 242.6640625 C11.8175 242.6640625 31.9475 242.6640625 52.6875 242.6640625 C52.6875 228.8040625 52.6875 214.9440625 52.6875 200.6640625 C44.65341797 200.75107422 44.65341797 200.75107422 36.45703125 200.83984375 C33.06181863 200.8653946 29.66672472 200.88946421 26.27148438 200.90820312 C20.88345695 200.93808157 15.49585477 200.97340922 10.1081543 201.04125977 C5.76390108 201.09562656 1.42010391 201.12549277 -2.92446327 201.13844872 C-4.58110038 201.14768031 -6.23771279 201.16570796 -7.8941555 201.19271278 C-10.21668601 201.22906748 -12.5373377 201.23400551 -14.86010742 201.23168945 C-15.88510094 201.25865402 -15.88510094 201.25865402 -16.93080139 201.28616333 C-20.63132483 201.24629267 -22.24653181 200.71457297 -25.21577454 198.44108582 C-28.37089592 194.26226231 -28.43525441 190.36338934 -28.47071838 185.24137878 C-28.4805072 184.1659079 -28.49029602 183.09043701 -28.50038147 181.9823761 C-28.50901466 180.22802498 -28.50901466 180.22802498 -28.51782227 178.43823242 C-28.52772186 177.19879883 -28.53762146 175.95936523 -28.54782104 174.68237305 C-28.57396082 171.29228658 -28.59584256 167.90222305 -28.61582303 164.51209807 C-28.63773237 160.96599184 -28.66509679 157.41992777 -28.69187927 153.87385559 C-28.74173939 147.16271941 -28.78670292 140.45155973 -28.82990164 133.74037772 C-28.87933121 126.09829956 -28.93422808 118.45626371 -28.98958123 110.81422651 C-29.10329867 95.09754431 -29.21015989 79.38082315 -29.3125 63.6640625 C-29.91868164 63.34083008 -30.52486328 63.01759766 -31.14941406 62.68457031 C-31.95088867 62.24983398 -32.75236328 61.81509766 -33.578125 61.3671875 C-34.36993164 60.94083008 -35.16173828 60.51447266 -35.97753906 60.07519531 C-43.15623697 55.73675178 -48.24215407 48.78220014 -50.921875 40.86328125 C-52.79005082 30.34545141 -52.00524882 19.85798547 -46.3125 10.6640625 C-35.3882123 -3.96110635 -16.30297352 -7.92997897 0 0 Z M-29.3125 23.6640625 C-31.19105086 27.42116422 -30.97629578 31.58384988 -30.3125 35.6640625 C-28.31238833 39.09810038 -25.88898506 41.87581997 -22.3125 43.6640625 C-18.01037555 44.28539309 -13.97854513 44.63442929 -10.1328125 42.39453125 C-7.05325659 39.76860287 -4.60327311 37.67739023 -4.00390625 33.52734375 C-3.75321139 28.56662416 -3.88330641 25.47655353 -7.1875 21.6015625 C-10.33126451 18.37426801 -12.49619202 17.45416689 -17 17.2265625 C-22.70352947 17.25136045 -25.69583025 19.39484377 -29.3125 23.6640625 Z M138.6875 53.6640625 C136.80894914 57.42116422 137.02370422 61.58384988 137.6875 65.6640625 C139.68761167 69.09810038 142.11101494 71.87581997 145.6875 73.6640625 C149.98962445 74.28539309 154.02145487 74.63442929 157.8671875 72.39453125 C160.94674341 69.76860287 163.39672689 67.67739023 163.99609375 63.52734375 C164.24678861 58.56662416 164.11669359 55.47655353 160.8125 51.6015625 C157.66873549 48.37426801 155.50380798 47.45416689 151 47.2265625 C145.29647053 47.25136045 142.30416975 49.39484377 138.6875 53.6640625 Z M72.6875 174.6640625 C72.6875 226.1440625 72.6875 277.6240625 72.6875 330.6640625 C124.1675 330.6640625 175.6475 330.6640625 228.6875 330.6640625 C228.6875 279.1840625 228.6875 227.7040625 228.6875 174.6640625 C177.2075 174.6640625 125.7275 174.6640625 72.6875 174.6640625 Z M-53.3125 245.6640625 C-55.19105086 249.42116422 -54.97629578 253.58384988 -54.3125 257.6640625 C-52.31238833 261.09810038 -49.88898506 263.87581997 -46.3125 265.6640625 C-42.01037555 266.28539309 -37.97854513 266.63442929 -34.1328125 264.39453125 C-31.05325659 261.76860287 -28.60327311 259.67739023 -28.00390625 255.52734375 C-27.75321139 250.56662416 -27.88330641 247.47655353 -31.1875 243.6015625 C-34.33126451 240.37426801 -36.49619202 239.45416689 -41 239.2265625 C-46.70352947 239.25136045 -49.69583025 241.39484377 -53.3125 245.6640625 Z M330.6875 245.6640625 C328.80894914 249.42116422 329.02370422 253.58384988 329.6875 257.6640625 C331.68761167 261.09810038 334.11101494 263.87581997 337.6875 265.6640625 C341.98962445 266.28539309 346.02145487 266.63442929 349.8671875 264.39453125 C352.94674341 261.76860287 355.39672689 259.67739023 355.99609375 255.52734375 C356.24678861 250.56662416 356.11669359 247.47655353 352.8125 243.6015625 C349.66873549 240.37426801 347.50380798 239.45416689 343 239.2265625 C337.29647053 239.25136045 334.30416975 241.39484377 330.6875 245.6640625 Z M138.6875 437.6640625 C136.80894914 441.42116422 137.02370422 445.58384988 137.6875 449.6640625 C139.68761167 453.09810038 142.11101494 455.87581997 145.6875 457.6640625 C149.98962445 458.28539309 154.02145487 458.63442929 157.8671875 456.39453125 C160.94674341 453.76860287 163.39672689 451.67739023 163.99609375 447.52734375 C164.24678861 442.56662416 164.11669359 439.47655353 160.8125 435.6015625 C157.66873549 432.37426801 155.50380798 431.45416689 151 431.2265625 C145.29647053 431.25136045 142.30416975 433.39484377 138.6875 437.6640625 Z M306.6875 467.6640625 C304.80894914 471.42116422 305.02370422 475.58384988 305.6875 479.6640625 C307.68761167 483.09810038 310.11101494 485.87581997 313.6875 487.6640625 C317.98962445 488.28539309 322.02145487 488.63442929 325.8671875 486.39453125 C328.94674341 483.76860287 331.39672689 481.67739023 331.99609375 477.52734375 C332.24678861 472.56662416 332.11669359 469.47655353 328.8125 465.6015625 C325.66873549 462.37426801 323.50380798 461.45416689 319 461.2265625 C313.29647053 461.25136045 310.30416975 463.39484377 306.6875 467.6640625 Z " fill="#000000" transform="translate(105.3125,3.3359375)"/>
<path d="M0 0 C0.79249146 -0.0087616 1.58498291 -0.01752319 2.40148926 -0.02655029 C5.01301325 -0.04850145 7.62283474 -0.0340079 10.234375 -0.01708984 C12.05371423 -0.02045924 13.87305127 -0.02531288 15.69238281 -0.03158569 C19.5021715 -0.03895118 23.31137337 -0.02826218 27.12109375 -0.00488281 C32.00065826 0.02360505 36.87884775 0.00719931 41.75836182 -0.02274513 C45.51426524 -0.04082702 49.26984353 -0.03505605 53.02575684 -0.02210617 C54.824668 -0.01877461 56.62360885 -0.02285047 58.42248535 -0.03450394 C60.9387003 -0.04722781 63.45269979 -0.02781685 65.96875 0 C67.08014343 -0.01518173 67.08014343 -0.01518173 68.21398926 -0.03067017 C71.91104676 0.04491662 73.87964835 0.5748285 76.94491577 2.68643188 C79.49683611 6.39087673 79.69074478 9.31437391 79.63134766 13.66259766 C79.64010925 14.45508911 79.64887085 15.24758057 79.65789795 16.06408691 C79.6798491 18.6756109 79.66535556 21.2854324 79.6484375 23.89697266 C79.65180689 25.71631189 79.65666054 27.53564893 79.66293335 29.35498047 C79.67029884 33.16476916 79.65960983 36.97397102 79.63623047 40.78369141 C79.6077426 45.66325591 79.62414835 50.5414454 79.65409279 55.42095947 C79.67217468 59.1768629 79.66640371 62.93244119 79.65345383 66.68835449 C79.65012227 68.48726566 79.65419813 70.2862065 79.66585159 72.08508301 C79.67857547 74.60129796 79.65916451 77.11529745 79.63134766 79.63134766 C79.64652939 80.74274109 79.64652939 80.74274109 79.66201782 81.87658691 C79.58643104 85.57364442 79.05651916 87.54224601 76.94491577 90.60751343 C73.24047093 93.15943377 70.31697375 93.35334243 65.96875 93.29394531 C65.17625854 93.30270691 64.38376709 93.31146851 63.56726074 93.32049561 C60.95573675 93.34244676 58.34591526 93.32795321 55.734375 93.31103516 C53.91503577 93.31440455 52.09569873 93.3192582 50.27636719 93.32553101 C46.4665785 93.33289649 42.65737663 93.32220749 38.84765625 93.29882812 C33.96809174 93.27034026 29.08990225 93.28674601 24.21038818 93.31669044 C20.45448476 93.33477234 16.69890647 93.32900136 12.94299316 93.31605148 C11.144082 93.31271992 9.34514115 93.31679578 7.54626465 93.32844925 C5.0300497 93.34117312 2.51605021 93.32176216 0 93.29394531 C-0.74092896 93.30406647 -1.48185791 93.31418762 -2.24523926 93.32461548 C-5.94229676 93.2490287 -7.91089835 92.71911682 -10.97616577 90.60751343 C-13.52808611 86.90306858 -13.72199478 83.9795714 -13.66259766 79.63134766 C-13.67135925 78.8388562 -13.68012085 78.04636475 -13.68914795 77.2298584 C-13.7110991 74.61833441 -13.69660556 72.00851291 -13.6796875 69.39697266 C-13.68305689 67.57763342 -13.68791054 65.75829638 -13.69418335 63.93896484 C-13.70154884 60.12917615 -13.69085983 56.31997429 -13.66748047 52.51025391 C-13.6389926 47.6306894 -13.65539835 42.75249991 -13.68534279 37.87298584 C-13.70342468 34.11708241 -13.69765371 30.36150413 -13.68470383 26.60559082 C-13.68137227 24.80667965 -13.68544813 23.00773881 -13.69710159 21.2088623 C-13.70982547 18.69264735 -13.69041451 16.17864786 -13.66259766 13.66259766 C-13.67271881 12.9216687 -13.68283997 12.18073975 -13.69326782 11.4173584 C-13.61768104 7.72030089 -13.08776916 5.7516993 -10.97616577 2.68643188 C-7.27172093 0.13451154 -4.34822375 -0.05939712 0 0 Z M6.984375 20.64697266 C6.984375 37.80697266 6.984375 54.96697266 6.984375 72.64697266 C24.144375 72.64697266 41.304375 72.64697266 58.984375 72.64697266 C58.984375 55.48697266 58.984375 38.32697266 58.984375 20.64697266 C41.824375 20.64697266 24.664375 20.64697266 6.984375 20.64697266 Z " fill="#000000" transform="translate(223.015625,209.35302734375)"/>
<path d="M0 0 C8.72879324 5.40474698 14.26227376 12.64985079 16.6875 22.6640625 C18.05441729 33.94960273 16.74719089 43.89027225 9.7734375 53.2265625 C2.94320768 60.7770711 -5.05771212 64.67517882 -15.25146484 65.25195312 C-25.79054932 65.44171158 -34.36884931 62.73089289 -42.25 55.6015625 C-49.37933039 47.72041181 -52.09014908 39.14211182 -51.90039062 28.60302734 C-51.32361632 18.40927462 -47.4255086 10.40835482 -39.875 3.578125 C-28.23505257 -5.11634793 -13.05927661 -6.35220248 0 0 Z M-29.3125 23.6640625 C-31.19105086 27.42116422 -30.97629578 31.58384988 -30.3125 35.6640625 C-28.31238833 39.09810038 -25.88898506 41.87581997 -22.3125 43.6640625 C-18.01037555 44.28539309 -13.97854513 44.63442929 -10.1328125 42.39453125 C-7.05325659 39.76860287 -4.60327311 37.67739023 -4.00390625 33.52734375 C-3.75321139 28.56662416 -3.88330641 25.47655353 -7.1875 21.6015625 C-10.33126451 18.37426801 -12.49619202 17.45416689 -17 17.2265625 C-22.70352947 17.25136045 -25.69583025 19.39484377 -29.3125 23.6640625 Z " fill="#000000" transform="translate(51.3125,393.3359375)"/>
<path d="M0 0 C8.72879324 5.40474698 14.26227376 12.64985079 16.6875 22.6640625 C18.05441729 33.94960273 16.74719089 43.89027225 9.7734375 53.2265625 C2.94320768 60.7770711 -5.05771212 64.67517882 -15.25146484 65.25195312 C-25.79054932 65.44171158 -34.36884931 62.73089289 -42.25 55.6015625 C-49.37933039 47.72041181 -52.09014908 39.14211182 -51.90039062 28.60302734 C-51.32361632 18.40927462 -47.4255086 10.40835482 -39.875 3.578125 C-28.23505257 -5.11634793 -13.05927661 -6.35220248 0 0 Z M-29.3125 23.6640625 C-31.19105086 27.42116422 -30.97629578 31.58384988 -30.3125 35.6640625 C-28.31238833 39.09810038 -25.88898506 41.87581997 -22.3125 43.6640625 C-18.01037555 44.28539309 -13.97854513 44.63442929 -10.1328125 42.39453125 C-7.05325659 39.76860287 -4.60327311 37.67739023 -4.00390625 33.52734375 C-3.75321139 28.56662416 -3.88330641 25.47655353 -7.1875 21.6015625 C-10.33126451 18.37426801 -12.49619202 17.45416689 -17 17.2265625 C-22.70352947 17.25136045 -25.69583025 19.39484377 -29.3125 23.6640625 Z " fill="#000000" transform="translate(495.3125,57.3359375)"/>
<path d="M0 0 C2.66173541 3.00298354 3.84055664 5.04333984 4.5 9 C3.86619108 12.80285351 2.37421663 14.99731426 0 18 C-3.47263273 19.73631636 -7.21193013 19.60190402 -11 19 C-13.75569447 16.81840855 -15.43588747 15.12822506 -17 12 C-17.43523772 8.16990809 -17.11581685 6.23163369 -15.375 2.75 C-10.76991003 -2.58220943 -6.30544073 -2.8024181 0 0 Z " fill="#000000" transform="translate(426,79)"/>
<path d="M0 0 C2.75569447 2.18159145 4.43588747 3.87177494 6 7 C6.43086265 10.79159134 6.10547837 12.780605 4.4375 16.25 C1.37726055 19.70257784 -0.43357284 20.45822051 -5 21 C-9.00111604 19.86635046 -11.25762777 18.88605718 -13.9375 15.6875 C-15.20332785 12.48570015 -15.42723594 10.41788751 -15 7 C-11.74168817 0.17306092 -7.15816433 -1.26837649 0 0 Z " fill="#000000" transform="translate(97,414)"/>
</svg>
